<svg width="26" height="25" viewBox="0 0 26 25" fill="none" xmlns="http://www.w3.org/2000/svg">
<path d="M20.4619 25C20.3147 25 20.1667 24.9646 20.0312 24.8928L13.0001 21.1693L5.96888 24.8928C5.65684 25.058 5.27879 25.0305 4.99364 24.8218C4.70841 24.6131 4.56565 24.2594 4.62522 23.9093L5.96799 16.0226L0.279668 10.4373C0.0272634 10.1894 -0.0635637 9.8187 0.0453399 9.48109C0.154244 9.14341 0.44406 8.89729 0.792922 8.84617L8.65406 7.69557L12.1696 0.519999C12.3256 0.201567 12.6476 0 13.0001 0C13.3525 0 13.6745 0.201567 13.8304 0.519999L17.346 7.69557L25.207 8.84617C25.5559 8.89729 25.8456 9.14333 25.9546 9.48109C26.0636 9.8187 25.9728 10.1894 25.7203 10.4373L20.0319 16.0227L21.3747 23.9094C21.4343 24.2593 21.2915 24.6132 21.0063 24.8219C20.845 24.9399 20.654 25 20.4619 25ZM2.9161 10.4208L7.60947 15.0291C7.82772 15.2434 7.92737 15.5523 7.87573 15.8547L6.7678 22.3619L12.569 19.2895C12.8388 19.1467 13.1611 19.1467 13.4309 19.2895L19.2322 22.3617L18.1242 15.8547C18.0727 15.552 18.1722 15.2434 18.3905 15.0291L23.0839 10.4208L16.5979 9.47139C16.2963 9.42721 16.0356 9.23647 15.9007 8.96109L13.0001 3.04066L10.0995 8.96109C9.96468 9.23639 9.70383 9.42721 9.40223 9.47139L2.9161 10.4208Z" fill="#63ACF0"/>
</svg>
