<svg width="18" height="18" viewBox="0 0 18 18" fill="none" xmlns="http://www.w3.org/2000/svg">
<path d="M16 8C16 9.90956 15.4414 12.7409 14.0912 14.0912C12.7409 15.4414 10.9096 16.2 9 16.2C7.09044 16.2 5.25909 15.4414 3.90883 14.0912C2.55857 12.7409 1.8 10.9096 1.8 9C1.8 7.09044 2.55857 5.25909 3.90883 3.90883C5.25909 2.55857 7.09044 1.8 9 1.8C9.684 1.8 10.35 1.899 10.98 2.079L12.393 0.666C11.349 0.234 10.206 0 9 0C7.8181 0 6.64778 0.232792 5.55585 0.685084C4.46392 1.13738 3.47177 1.80031 2.63604 2.63604C0.948212 4.32387 0 6.61305 0 9C0 11.3869 0.948212 13.6761 2.63604 15.364C3.47177 16.1997 4.46392 16.8626 5.55585 17.3149C6.64778 17.7672 7.8181 18 9 18C11.3869 18 13.6761 17.0518 15.364 15.364C17.0518 13.6761 18 10.3869 18 8H16ZM5.319 7.272L4.05 8.55L8.1 12.6L17.5 3L16.5 1.8L8.1 10.053L5.319 7.272Z" fill="white"/>
</svg>
