<svg width="58" height="58" viewBox="0 0 58 58" fill="none" xmlns="http://www.w3.org/2000/svg">
<path d="M58 29C58 45.0163 45.0163 58 29 58C12.9837 58 0 45.0163 0 29C0 12.9837 12.9837 0 29 0C45.0163 0 58 12.9837 58 29Z" fill="#2AAF78"/>
<path d="M36.462 42C36.3147 42 36.1668 41.9645 36.0313 41.8928L29.0001 38.1693L21.9689 41.8928C21.6569 42.058 21.2788 42.0305 20.9937 41.8218C20.7085 41.6131 20.5657 41.2594 20.6253 40.9093L21.968 33.0226L16.2797 27.4373C16.0273 27.1894 15.9365 26.8187 16.0454 26.4811C16.1543 26.1434 16.4441 25.8973 16.793 25.8462L24.6541 24.6956L28.1697 17.52C28.3256 17.2016 28.6476 17 29.0001 17C29.3525 17 29.6746 17.2016 29.8304 17.52L33.346 24.6956L41.2071 25.8462C41.556 25.8973 41.8457 26.1433 41.9547 26.4811C42.0637 26.8187 41.9728 27.1894 41.7203 27.4373L36.0319 33.0227L37.3748 40.9094C37.4344 41.2593 37.2915 41.6132 37.0064 41.8219C36.8451 41.9399 36.6541 42 36.462 42ZM18.9162 27.4208L23.6095 32.0291C23.8278 32.2434 23.9274 32.5523 23.8758 32.8547L22.7679 39.3619L28.5691 36.2895C28.8389 36.1467 29.1612 36.1467 29.431 36.2895L35.2322 39.3617L34.1242 32.8547C34.0727 32.552 34.1723 32.2434 34.3905 32.0291L39.084 27.4208L32.598 26.4714C32.2964 26.4272 32.0356 26.2365 31.9007 25.9611L29.0002 20.0407L26.0996 25.9611C25.9647 26.2364 25.7039 26.4272 25.4023 26.4714L18.9162 27.4208Z" fill="white"/>
</svg>
