<svg width="58" height="58" viewBox="0 0 58 58" fill="none" xmlns="http://www.w3.org/2000/svg">
<path d="M58 29C58 45.0163 45.0163 58 29 58C12.9837 58 0 45.0163 0 29C0 12.9837 12.9837 0 29 0C45.0163 0 58 12.9837 58 29Z" fill="white"/>
<path d="M36.4619 42C36.3146 42 36.1667 41.9645 36.0312 41.8928L29 38.1693L21.9688 41.8928C21.6568 42.058 21.2787 42.0305 20.9936 41.8218C20.7084 41.6131 20.5656 41.2594 20.6252 40.9093L21.9679 33.0226L16.2796 27.4373C16.0272 27.1894 15.9364 26.8187 16.0453 26.4811C16.1542 26.1434 16.444 25.8973 16.7929 25.8462L24.654 24.6956L28.1696 17.52C28.3255 17.2016 28.6475 17 29 17C29.3524 17 29.6745 17.2016 29.8303 17.52L33.3459 24.6956L41.207 25.8462C41.5559 25.8973 41.8456 26.1433 41.9546 26.4811C42.0636 26.8187 41.9727 27.1894 41.7202 27.4373L36.0318 33.0227L37.3747 40.9094C37.4343 41.2593 37.2914 41.6132 37.0063 41.8219C36.845 41.9399 36.654 42 36.4619 42ZM18.9161 27.4208L23.6094 32.0291C23.8277 32.2434 23.9273 32.5523 23.8757 32.8547L22.7678 39.3619L28.569 36.2895C28.8388 36.1467 29.1611 36.1467 29.4309 36.2895L35.2321 39.3617L34.1241 32.8547C34.0726 32.552 34.1722 32.2434 34.3904 32.0291L39.0839 27.4208L32.5979 26.4714C32.2963 26.4272 32.0355 26.2365 31.9006 25.9611L29.0001 20.0407L26.0995 25.9611C25.9646 26.2364 25.7038 26.4272 25.4022 26.4714L18.9161 27.4208Z" fill="#63ACF0"/>
</svg>
